<mxfile host="65bd71144e">
    <diagram id="O_EQoHGYk8h4reVoKZwu" name="Page-1">
        <mxGraphModel dx="917" dy="613" grid="1" gridSize="10" guides="1" tooltips="1" connect="1" arrows="1" fold="1" page="1" pageScale="1" pageWidth="1600" pageHeight="1000" math="0" shadow="0">
            <root>
                <mxCell id="0"/>
                <mxCell id="1" parent="0"/>
                <mxCell id="GTJx_yLvEGHqjySzyFvc-7" value="" style="edgeStyle=orthogonalEdgeStyle;rounded=0;orthogonalLoop=1;jettySize=auto;html=1;fontSize=20;" parent="1" source="GTJx_yLvEGHqjySzyFvc-1" target="GTJx_yLvEGHqjySzyFvc-4" edge="1">
                    <mxGeometry relative="1" as="geometry"/>
                </mxCell>
                <mxCell id="GTJx_yLvEGHqjySzyFvc-10" style="edgeStyle=orthogonalEdgeStyle;rounded=0;orthogonalLoop=1;jettySize=auto;html=1;exitX=0.75;exitY=1;exitDx=0;exitDy=0;entryX=0.25;entryY=0;entryDx=0;entryDy=0;fontSize=20;" parent="1" source="GTJx_yLvEGHqjySzyFvc-1" target="GTJx_yLvEGHqjySzyFvc-6" edge="1">
                    <mxGeometry relative="1" as="geometry"/>
                </mxCell>
                <mxCell id="GTJx_yLvEGHqjySzyFvc-1" value="&lt;font style=&quot;font-size: 20px;&quot;&gt;int2048&lt;/font&gt;" style="rounded=1;whiteSpace=wrap;html=1;" parent="1" vertex="1">
                    <mxGeometry x="280" y="160" width="160" height="160" as="geometry"/>
                </mxCell>
                <mxCell id="GTJx_yLvEGHqjySzyFvc-12" style="edgeStyle=orthogonalEdgeStyle;rounded=0;orthogonalLoop=1;jettySize=auto;html=1;exitX=1;exitY=0.5;exitDx=0;exitDy=0;entryX=0;entryY=0.5;entryDx=0;entryDy=0;fontSize=20;" parent="1" source="GTJx_yLvEGHqjySzyFvc-4" target="GTJx_yLvEGHqjySzyFvc-6" edge="1">
                    <mxGeometry relative="1" as="geometry"/>
                </mxCell>
                <mxCell id="GTJx_yLvEGHqjySzyFvc-4" value="&lt;font style=&quot;font-size: 20px;&quot;&gt;map&lt;br&gt;&lt;/font&gt;" style="rounded=1;whiteSpace=wrap;html=1;" parent="1" vertex="1">
                    <mxGeometry x="280" y="400" width="160" height="160" as="geometry"/>
                </mxCell>
                <mxCell id="GTJx_yLvEGHqjySzyFvc-11" style="edgeStyle=orthogonalEdgeStyle;rounded=0;orthogonalLoop=1;jettySize=auto;html=1;exitX=0.75;exitY=1;exitDx=0;exitDy=0;entryX=0.75;entryY=0;entryDx=0;entryDy=0;fontSize=20;" parent="1" source="GTJx_yLvEGHqjySzyFvc-5" target="GTJx_yLvEGHqjySzyFvc-6" edge="1">
                    <mxGeometry relative="1" as="geometry"/>
                </mxCell>
                <mxCell id="GTJx_yLvEGHqjySzyFvc-5" value="&lt;span style=&quot;font-size: 20px;&quot;&gt;set&lt;/span&gt;" style="rounded=1;whiteSpace=wrap;html=1;" parent="1" vertex="1">
                    <mxGeometry x="520" y="160" width="160" height="160" as="geometry"/>
                </mxCell>
                <mxCell id="GTJx_yLvEGHqjySzyFvc-6" value="&lt;font style=&quot;font-size: 20px&quot;&gt;main&lt;br&gt;&lt;/font&gt;" style="rounded=1;whiteSpace=wrap;html=1;" parent="1" vertex="1">
                    <mxGeometry x="520" y="400" width="160" height="160" as="geometry"/>
                </mxCell>
            </root>
        </mxGraphModel>
    </diagram>
</mxfile>